<svg xmlns="http://www.w3.org/2000/svg" viewBox="0 0 800 450" font-family="monospace">
  <rect width="800" height="450" fill="#12161d"/>
  <g stroke="#222c38" stroke-width="1">
    <path d="M0 90H800M0 180H800M0 270H800M0 360H800"/>
    <path d="M100 0V450M200 0V450M300 0V450M400 0V450M500 0V450M600 0V450M700 0V450"/>
  </g>
  <rect x="0" y="0" width="800" height="4" fill="#ff4d5e"/>
  <text x="48" y="72" fill="#29e0d0" font-size="20" letter-spacing="4">// FINAI — SPEND ANALYTICS</text>
  <!-- chart panel -->
  <g>
    <rect x="48" y="110" width="440" height="280" fill="#161b22" stroke="#2a3441"/>
    <polyline points="80,340 150,300 220,318 290,240 360,262 430,180" fill="none" stroke="#29e0d0" stroke-width="3"/>
    <g fill="#29e0d0">
      <circle cx="80" cy="340" r="4"/><circle cx="150" cy="300" r="4"/><circle cx="220" cy="318" r="4"/>
      <circle cx="290" cy="240" r="4"/><circle cx="360" cy="262" r="4"/><circle cx="430" cy="180" r="4"/>
    </g>
    <polyline points="80,350 150,342 220,352 290,310 360,330 430,290" fill="none" stroke="#ff4d5e" stroke-width="2" stroke-dasharray="6 4"/>
    <text x="80" y="150" fill="#8b98a5" font-size="14" letter-spacing="2">MONTH-OVER-MONTH</text>
  </g>
  <!-- category bars -->
  <g>
    <rect x="520" y="110" width="232" height="280" fill="#161b22" stroke="#2a3441"/>
    <text x="544" y="150" fill="#8b98a5" font-size="14" letter-spacing="2">CATEGORIES</text>
    <g fill="#29e0d0">
      <rect x="544" y="176" width="150" height="12"/>
      <rect x="544" y="216" width="110" height="12"/>
      <rect x="544" y="256" width="180" height="12"/>
      <rect x="544" y="296" width="80" height="12"/>
      <rect x="544" y="336" width="130" height="12"/>
    </g>
  </g>
  <g fill="#5f6b78" font-size="13" letter-spacing="2">
    <text x="48" y="424">JWT // RBAC // GO-GIN // POSTGRES</text>
    <text x="700" y="424" fill="#ff4d5e">● LIVE</text>
  </g>
</svg>
