<svg xmlns="http://www.w3.org/2000/svg" viewBox="0 0 800 450" font-family="monospace">
  <rect width="800" height="450" fill="#12161d"/>
  <g stroke="#222c38" stroke-width="1">
    <path d="M0 90H800M0 180H800M0 270H800M0 360H800"/>
    <path d="M100 0V450M200 0V450M300 0V450M400 0V450M500 0V450M600 0V450M700 0V450"/>
  </g>
  <rect x="0" y="0" width="800" height="4" fill="#ff4d5e"/>
  <text x="48" y="72" fill="#29e0d0" font-size="20" letter-spacing="4">// SHEPHERD PATHWAYS — 5 VERTICALS</text>
  <!-- multi-step form -->
  <g>
    <rect x="48" y="110" width="360" height="280" fill="#161b22" stroke="#2a3441"/>
    <text x="72" y="150" fill="#8b98a5" font-size="14" letter-spacing="2">INQUIRY // STEP 2 OF 4</text>
    <g stroke="#2a3441" fill="none">
      <rect x="72" y="176" width="312" height="34"/>
      <rect x="72" y="226" width="312" height="34"/>
      <rect x="72" y="276" width="312" height="60"/>
    </g>
    <rect x="72" y="182" width="180" height="6" fill="#5f6b78"/>
    <rect x="72" y="232" width="120" height="6" fill="#5f6b78"/>
    <rect x="284" y="356" width="100" height="24" fill="#ff4d5e"/>
    <!-- progress diamonds -->
    <g transform="translate(96,364)">
      <rect width="14" height="14" transform="rotate(45 7 7)" fill="#29e0d0"/>
      <rect x="34" width="14" height="14" transform="rotate(45 41 7)" fill="#29e0d0"/>
      <rect x="68" width="14" height="14" transform="rotate(45 75 7)" fill="none" stroke="#2a3441"/>
      <rect x="102" width="14" height="14" transform="rotate(45 109 7)" fill="none" stroke="#2a3441"/>
    </g>
  </g>
  <!-- vertical cards -->
  <g>
    <rect x="440" y="110" width="150" height="128" fill="#161b22" stroke="#2a3441"/>
    <rect x="602" y="110" width="150" height="128" fill="#161b22" stroke="#2a3441"/>
    <rect x="440" y="262" width="150" height="128" fill="#161b22" stroke="#2a3441"/>
    <rect x="602" y="262" width="150" height="128" fill="#161b22" stroke="#2a3441"/>
    <g fill="#29e0d0">
      <rect x="440" y="110" width="150" height="3"/>
      <rect x="602" y="110" width="150" height="3"/>
      <rect x="440" y="262" width="150" height="3"/>
      <rect x="602" y="262" width="150" height="3"/>
    </g>
    <g fill="#5f6b78">
      <rect x="464" y="190" width="100" height="6"/>
      <rect x="626" y="190" width="80" height="6"/>
      <rect x="464" y="342" width="90" height="6"/>
      <rect x="626" y="342" width="104" height="6"/>
    </g>
  </g>
  <g fill="#5f6b78" font-size="13" letter-spacing="2">
    <text x="48" y="424">REACT // TAILWIND V4 // SUPABASE</text>
    <text x="700" y="424" fill="#ff4d5e">● LIVE</text>
  </g>
</svg>
